<svg width="400.67px" height="400.67px" enable-background="new 0 0 400.667 400.666" version="1.1" viewBox="0 0 400.67 400.67" xml:space="preserve" xmlns="http://www.w3.org/2000/svg">
<circle transform="rotate(120)" cx="73.039" cy="-273.49" r="161" fill="#232323"/><g fill="none" stroke-miterlimit="10"><g stroke-width="10">
<path d="m107.29 311.33c59.226 49.697 138.19 40.441 185.57 0.41459" stroke="#f9ff00"/><path d="m225.25 57.067c-76.14-13.426-139.89 34.071-160.91 92.425" stroke="#009ec9"/>
<path d="m57.498 225.47c6.3713 36.141 25.929 65.778 50.047 86.066" stroke="#f00"/>
<path d="m294.33 310.51c32.699-27.736 51.666-68.925 51.666-110.48 1e-3 -72.516-57.471-145.33-145.33-145.33" stroke="#007511"/></g><g stroke="#fff"><g stroke-width="4">
<line x1="296.81" x2="281.75" y1="85.02" y2="102.97"/>
<line x1="310.03" x2="330.32" y1="136.67" y2="124.95"/>
<line x1="348.15" x2="325.08" y1="173.94" y2="178.01"/>
<line x1="348.15" x2="325.08" y1="226.06" y2="222"/>
<line x1="330.32" x2="310.03" y1="275.05" y2="263.34"/>
<line x1="296.81" x2="281.75" y1="314.98" y2="297.04"/>
<line x1="251.67" x2="243.66" y1="341.05" y2="319.03"/>
<line x1="200.33" x2="200.33" y1="350.1" y2="326.67"/>
<line x1="149" x2="157.01" y1="341.04" y2="319.03"/>
<line x1="103.85" x2="118.91" y1="314.98" y2="297.03"/>
<line x1="70.343" x2="90.633" y1="275.05" y2="263.33"/>
<line x1="52.515" x2="75.588" y1="226.06" y2="222"/>
<line x1="59.288" x2="81.303" y1="148.66" y2="156.68"/>
<line x1="85.353" x2="103.3" y1="103.52" y2="118.58"/>
<line x1="125.29" x2="137" y1="70.011" y2="90.303"/>
</g><line x1="315.31" x2="303.08" y1="103.52" y2="113.8" stroke-width="2"/>
<line x1="251.67" x2="243.66" y1="58.956" y2="80.973" stroke-width="4"/>
<line x1="275.38" x2="267.4" y1="70.017" y2="83.855" stroke-width="2"/>
<line x1="200.33" x2="200.33" y1="49.904" y2="73.334" stroke-width="4"/><g stroke-width="2">
<line x1="226.4" x2="223.63" y1="52.188" y2="67.923"/>




<line x1="341.38" x2="326.36" y1="148.67" y2="154.14"/>
<line x1="350.43" x2="334.45" y1="200" y2="200.01"/>
<line x1="341.38" x2="326.36" y1="251.34" y2="245.88"/>
<line x1="315.31" x2="303.07" y1="296.48" y2="286.21"/>
<line x1="275.38" x2="267.38" y1="329.99" y2="316.15"/>
<line x1="226.4" x2="223.62" y1="347.82" y2="332.08"/>
<line x1="174.27" x2="177.04" y1="347.82" y2="332.08"/>
<line x1="125.28" x2="133.27" y1="329.99" y2="316.14"/>
<line x1="85.351" x2="97.59" y1="296.48" y2="286.2"/>
<line x1="59.287" x2="74.303" y1="251.34" y2="245.86"/>

<line x1="70.344" x2="84.188" y1="124.95" y2="132.94"/>
<line x1="103.85" x2="114.13" y1="85.019" y2="97.258"/></g><line x1="148.98" x2="156.99" y1="58.919" y2="80.936" stroke-width="4"/><line x1="174.25" x2="177.03" y1="52.149" y2="67.887" stroke-width="2"/></g></g><g fill="#ffffff" font-family="sans-serif" stroke="#ffffff" stroke-miterlimit="10" stroke-width=".5">








<text transform="translate(175.38 242.19)" font-size="14px"/>
<text x="199.93457" y="273.18951" font-size="18.667px" text-align="center" text-anchor="middle">ENGINE</text><text x="90.171753" y="163.34526" font-size="14px">REVERSE</text><text x="89.876778" y="223.41818" font-size="14px">MAX</text>
</g><text transform="translate(194.66 99.649)" fill="#FFFFFF" font-family="sans-serif" font-size="20" stroke="#FFFFFF" stroke-miterlimit="10" stroke-width=".5">0</text>
</svg>
